<mxfile host="www.draw.io" modified="2020-02-02T11:32:34.286Z" agent="Mozilla/5.0 (Windows NT 10.0; Win64; x64) AppleWebKit/537.36 (KHTML, like Gecko) Chrome/79.0.3945.130 Safari/537.36" etag="k3aZ5rwcY9tmXw59oJwn" version="12.6.2" type="github">
  <diagram id="ReEPKnEd_0EWLOPjoHZj" name="Page-1">
    <mxGraphModel dx="2480" dy="1174" grid="1" gridSize="10" guides="1" tooltips="1" connect="1" arrows="1" fold="1" page="1" pageScale="1" pageWidth="1169" pageHeight="827" math="0" shadow="0">
      <root>
        <mxCell id="0"/>
        <mxCell id="1" parent="0"/>
        <mxCell id="Ve-bfU57_sxpQLA3fy4P-13" value="" style="group" vertex="1" connectable="0" parent="1">
          <mxGeometry x="700" y="16" width="170" height="220" as="geometry"/>
        </mxCell>
        <mxCell id="Ve-bfU57_sxpQLA3fy4P-3" value="" style="rounded=0;whiteSpace=wrap;html=1;" vertex="1" parent="Ve-bfU57_sxpQLA3fy4P-13">
          <mxGeometry width="170" height="220" as="geometry"/>
        </mxCell>
        <mxCell id="Ve-bfU57_sxpQLA3fy4P-6" value="&lt;font style=&quot;font-size: 20px&quot;&gt;&lt;b&gt;Доступ к данным&lt;/b&gt;&lt;/font&gt;" style="text;html=1;strokeColor=none;fillColor=none;align=center;verticalAlign=middle;whiteSpace=wrap;rounded=0;" vertex="1" parent="Ve-bfU57_sxpQLA3fy4P-13">
          <mxGeometry x="35.41666666666667" y="20" width="99.16666666666667" height="40" as="geometry"/>
        </mxCell>
        <mxCell id="Ve-bfU57_sxpQLA3fy4P-16" value="&lt;font style=&quot;font-size: 16px&quot;&gt;БД&lt;/font&gt;" style="rounded=0;whiteSpace=wrap;html=1;" vertex="1" parent="Ve-bfU57_sxpQLA3fy4P-13">
          <mxGeometry x="42.5" y="90" width="85" height="60" as="geometry"/>
        </mxCell>
        <mxCell id="Ve-bfU57_sxpQLA3fy4P-15" value="" style="group" vertex="1" connectable="0" parent="1">
          <mxGeometry x="10" y="16" width="187" height="270" as="geometry"/>
        </mxCell>
        <mxCell id="Ve-bfU57_sxpQLA3fy4P-1" value="" style="rounded=0;whiteSpace=wrap;html=1;" vertex="1" parent="Ve-bfU57_sxpQLA3fy4P-15">
          <mxGeometry x="30" width="157" height="270" as="geometry"/>
        </mxCell>
        <mxCell id="Ve-bfU57_sxpQLA3fy4P-4" value="&lt;font style=&quot;font-size: 20px&quot;&gt;&lt;b&gt;Графический интерфейс&lt;/b&gt;&lt;/font&gt;" style="text;html=1;strokeColor=none;fillColor=none;align=center;verticalAlign=middle;whiteSpace=wrap;rounded=0;" vertex="1" parent="Ve-bfU57_sxpQLA3fy4P-15">
          <mxGeometry x="58.91833333333333" y="34.00272727272727" width="99.16666666666666" height="24.545454545454547" as="geometry"/>
        </mxCell>
        <mxCell id="Ve-bfU57_sxpQLA3fy4P-18" style="edgeStyle=orthogonalEdgeStyle;curved=1;rounded=0;orthogonalLoop=1;jettySize=auto;html=1;exitX=1;exitY=0.5;exitDx=0;exitDy=0;entryX=0.5;entryY=1;entryDx=0;entryDy=0;" edge="1" parent="1" source="Ve-bfU57_sxpQLA3fy4P-2" target="Ve-bfU57_sxpQLA3fy4P-3">
          <mxGeometry relative="1" as="geometry"/>
        </mxCell>
        <mxCell id="Ve-bfU57_sxpQLA3fy4P-19" style="edgeStyle=orthogonalEdgeStyle;curved=1;rounded=0;orthogonalLoop=1;jettySize=auto;html=1;exitX=0.75;exitY=1;exitDx=0;exitDy=0;entryX=1;entryY=0.75;entryDx=0;entryDy=0;" edge="1" parent="1" source="Ve-bfU57_sxpQLA3fy4P-3" target="Ve-bfU57_sxpQLA3fy4P-2">
          <mxGeometry relative="1" as="geometry"/>
        </mxCell>
        <mxCell id="Ve-bfU57_sxpQLA3fy4P-20" style="edgeStyle=orthogonalEdgeStyle;curved=1;rounded=0;orthogonalLoop=1;jettySize=auto;html=1;exitX=0.5;exitY=1;exitDx=0;exitDy=0;entryX=0;entryY=0.75;entryDx=0;entryDy=0;" edge="1" parent="1" source="Ve-bfU57_sxpQLA3fy4P-1" target="Ve-bfU57_sxpQLA3fy4P-2">
          <mxGeometry relative="1" as="geometry"/>
        </mxCell>
        <mxCell id="Ve-bfU57_sxpQLA3fy4P-21" style="edgeStyle=orthogonalEdgeStyle;curved=1;rounded=0;orthogonalLoop=1;jettySize=auto;html=1;exitX=0;exitY=0.5;exitDx=0;exitDy=0;entryX=1;entryY=0.5;entryDx=0;entryDy=0;" edge="1" parent="1" source="Ve-bfU57_sxpQLA3fy4P-2" target="Ve-bfU57_sxpQLA3fy4P-1">
          <mxGeometry relative="1" as="geometry"/>
        </mxCell>
        <mxCell id="Ve-bfU57_sxpQLA3fy4P-22" value="&lt;span style=&quot;font-size: 16px&quot;&gt;HTTP&lt;/span&gt;" style="text;html=1;strokeColor=none;fillColor=none;align=center;verticalAlign=middle;whiteSpace=wrap;rounded=0;" vertex="1" parent="1">
          <mxGeometry x="640" y="220" width="40" height="20" as="geometry"/>
        </mxCell>
        <mxCell id="Ve-bfU57_sxpQLA3fy4P-23" value="&lt;span style=&quot;font-size: 16px&quot;&gt;JSON&lt;/span&gt;" style="text;html=1;strokeColor=none;fillColor=none;align=center;verticalAlign=middle;whiteSpace=wrap;rounded=0;" vertex="1" parent="1">
          <mxGeometry x="730" y="360" width="40" height="20" as="geometry"/>
        </mxCell>
        <mxCell id="Ve-bfU57_sxpQLA3fy4P-24" value="&lt;span style=&quot;font-size: 16px&quot;&gt;JSON&lt;/span&gt;" style="text;html=1;strokeColor=none;fillColor=none;align=center;verticalAlign=middle;whiteSpace=wrap;rounded=0;" vertex="1" parent="1">
          <mxGeometry x="250" y="140" width="40" height="20" as="geometry"/>
        </mxCell>
        <mxCell id="Ve-bfU57_sxpQLA3fy4P-25" value="&lt;span style=&quot;font-size: 16px&quot;&gt;HTTP&lt;/span&gt;" style="text;html=1;strokeColor=none;fillColor=none;align=center;verticalAlign=middle;whiteSpace=wrap;rounded=0;" vertex="1" parent="1">
          <mxGeometry x="210" y="380" width="40" height="20" as="geometry"/>
        </mxCell>
        <mxCell id="Ve-bfU57_sxpQLA3fy4P-2" value="" style="rounded=0;whiteSpace=wrap;html=1;container=1;" vertex="1" parent="1">
          <mxGeometry x="300" y="16" width="320" height="474" as="geometry">
            <mxRectangle x="330" y="16" width="50" height="40" as="alternateBounds"/>
          </mxGeometry>
        </mxCell>
        <mxCell id="Ve-bfU57_sxpQLA3fy4P-17" value="&lt;div style=&quot;text-align: justify&quot;&gt;&lt;span style=&quot;font-size: 18px&quot;&gt;1) План курса&lt;/span&gt;&lt;/div&gt;&lt;ul&gt;&lt;li style=&quot;text-align: justify&quot;&gt;&lt;span style=&quot;font-size: 18px&quot;&gt;добавление&lt;/span&gt;&lt;/li&gt;&lt;li style=&quot;text-align: justify&quot;&gt;&lt;span style=&quot;font-size: 18px&quot;&gt;редактирование&lt;/span&gt;&lt;/li&gt;&lt;li style=&quot;text-align: justify&quot;&gt;&lt;span style=&quot;font-size: 18px&quot;&gt;просмотр&lt;/span&gt;&lt;/li&gt;&lt;/ul&gt;&lt;span style=&quot;font-size: 18px&quot;&gt;&lt;div style=&quot;text-align: justify&quot;&gt;&lt;span&gt;2) План занятия&lt;/span&gt;&lt;/div&gt;&lt;/span&gt;&lt;ul&gt;&lt;li style=&quot;text-align: justify&quot;&gt;&lt;span style=&quot;font-size: 18px&quot;&gt;добавление&lt;/span&gt;&lt;/li&gt;&lt;li style=&quot;text-align: justify&quot;&gt;&lt;span style=&quot;font-size: 18px&quot;&gt;редактирования&lt;/span&gt;&lt;/li&gt;&lt;ul&gt;&lt;li style=&quot;text-align: justify&quot;&gt;&lt;span style=&quot;font-size: 18px&quot;&gt;факт реализации&lt;/span&gt;&lt;/li&gt;&lt;/ul&gt;&lt;li style=&quot;text-align: justify&quot;&gt;&lt;span style=&quot;font-size: 18px&quot;&gt;просмотр&lt;/span&gt;&lt;/li&gt;&lt;/ul&gt;&lt;span style=&quot;font-size: 18px&quot;&gt;&lt;div style=&quot;text-align: justify&quot;&gt;&lt;span&gt;3) Студенты&lt;/span&gt;&lt;/div&gt;&lt;/span&gt;&lt;ul&gt;&lt;li style=&quot;text-align: justify&quot;&gt;&lt;span style=&quot;font-size: 18px&quot;&gt;таблица оценок и посещаемости&lt;/span&gt;&lt;/li&gt;&lt;/ul&gt;" style="rounded=0;whiteSpace=wrap;html=1;" vertex="1" parent="Ve-bfU57_sxpQLA3fy4P-2">
          <mxGeometry x="45" y="71.1" width="230" height="338.9" as="geometry"/>
        </mxCell>
        <mxCell id="Ve-bfU57_sxpQLA3fy4P-5" value="&lt;font style=&quot;font-size: 20px&quot;&gt;&lt;b&gt;Бизнес логика&lt;/b&gt;&lt;/font&gt;" style="text;html=1;strokeColor=none;fillColor=none;align=center;verticalAlign=middle;whiteSpace=wrap;rounded=0;" vertex="1" parent="1">
          <mxGeometry x="358.3333333333333" y="29.25" width="233.33333333333331" height="66.25000000000001" as="geometry"/>
        </mxCell>
        <mxCell id="Ve-bfU57_sxpQLA3fy4P-26" value="&lt;font style=&quot;font-size: 26px&quot;&gt;&lt;b&gt;Модель JSON совпадает с моделью БД.&lt;br&gt;Структура данных возвращается на front и обрабатывается шаблонизатором DJANGO&lt;/b&gt;&lt;br&gt;&lt;/font&gt;" style="text;html=1;strokeColor=none;fillColor=none;align=center;verticalAlign=middle;whiteSpace=wrap;rounded=0;" vertex="1" parent="1">
          <mxGeometry x="262.86" y="590" width="640" height="130" as="geometry"/>
        </mxCell>
        <mxCell id="Ve-bfU57_sxpQLA3fy4P-27" value="" style="rounded=0;whiteSpace=wrap;html=1;" vertex="1" parent="1">
          <mxGeometry x="910" y="16" width="210" height="474" as="geometry"/>
        </mxCell>
        <mxCell id="Ve-bfU57_sxpQLA3fy4P-34" value="&lt;span style=&quot;font-size: 20px&quot;&gt;&lt;b&gt;Сервисные компоненты&lt;/b&gt;&lt;/span&gt;" style="text;html=1;strokeColor=none;fillColor=none;align=center;verticalAlign=middle;whiteSpace=wrap;rounded=0;" vertex="1" parent="1">
          <mxGeometry x="965.4166666666666" y="29.25" width="99.16666666666667" height="40" as="geometry"/>
        </mxCell>
        <mxCell id="Ve-bfU57_sxpQLA3fy4P-35" value="&lt;font style=&quot;font-size: 16px&quot;&gt;Генерация запросов к БД&lt;br&gt;Обработка ошибок&lt;br&gt;Обработка запросов&lt;/font&gt;" style="rounded=0;whiteSpace=wrap;html=1;verticalAlign=top;align=center;" vertex="1" parent="1">
          <mxGeometry x="935" y="90" width="160" height="220" as="geometry"/>
        </mxCell>
      </root>
    </mxGraphModel>
  </diagram>
</mxfile>
